<svg width="64" height="64" viewBox="0 0 64 64" fill="none" xmlns="http://www.w3.org/2000/svg">
  <circle cx="32" cy="32" r="32" fill="#DDF4F1"/>
  <circle cx="32" cy="26" r="12" fill="#FFDDBD"/>
  <path d="M20 25C20 18.3726 25.3726 13 32 13C38.6274 13 44 18.3726 44 25V29H20V25Z" fill="#1F5C5A"/>
  <path d="M19 52C19 42.0589 27.0589 34 37 34H27C17.0589 34 9 42.0589 9 52V54H55V52C55 42.0589 46.9411 34 37 34H27C17.0589 34 9 42.0589 9 52V54H19V52Z" fill="#F7FCFC"/>
  <path d="M27 34L32 40L37 34" stroke="#9DD7D0" stroke-width="2.5" stroke-linecap="round" stroke-linejoin="round"/>
  <path d="M26 42L23 50" stroke="#9DD7D0" stroke-width="2.5" stroke-linecap="round"/>
  <path d="M38 42L41 50" stroke="#9DD7D0" stroke-width="2.5" stroke-linecap="round"/>
  <path d="M28 28.5C29 29.5 30 30 32 30C34 30 35 29.5 36 28.5" stroke="#A25A4A" stroke-width="2" stroke-linecap="round"/>
  <circle cx="28" cy="25" r="1.5" fill="#3E2A21"/>
  <circle cx="36" cy="25" r="1.5" fill="#3E2A21"/>
  <circle cx="49" cy="17" r="7" fill="#FFFFFF"/>
  <path d="M49 13.5V20.5" stroke="#17A398" stroke-width="2.5" stroke-linecap="round"/>
  <path d="M45.5 17H52.5" stroke="#17A398" stroke-width="2.5" stroke-linecap="round"/>
</svg>
